<svg width="288" height="274" viewBox="0 0 288 274" fill="none" xmlns="http://www.w3.org/2000/svg">
<path d="M288 104.663H178.013L143.967 0L109.987 104.663H0L88.9734 169.337L54.9933 274L143.967 209.326L232.94 274L198.96 169.337L288 104.663ZM149.22 156.495V172.73C149.22 175.592 146.893 177.92 144.033 177.92C141.174 177.92 138.846 175.592 138.846 172.73V156.495C131.997 154.3 126.943 147.912 126.943 140.327C126.943 130.879 134.591 123.227 144.033 123.227C153.476 123.227 161.123 130.879 161.123 140.327C161.057 147.912 156.069 154.233 149.22 156.495Z" fill="#6F88FE"/>
</svg>
